<svg width="33" height="33" viewBox="0 0 33 33" fill="none" xmlns="http://www.w3.org/2000/svg">
<path d="M5.41773 1.22583L16.6465 12.4541L27.8171 1.28401C28.0638 1.02138 28.3611 0.811297 28.691 0.66634C29.0209 0.521383 29.3767 0.444544 29.737 0.44043C30.5085 0.44043 31.2484 0.7469 31.794 1.29242C32.3395 1.83794 32.646 2.57783 32.646 3.34931C32.6528 3.70595 32.5866 4.0602 32.4516 4.39035C32.3165 4.72049 32.1154 5.01955 31.8606 5.26917L20.5446 16.4393L31.8606 27.7548C32.34 28.2239 32.6212 28.859 32.646 29.5292C32.646 30.3007 32.3395 31.0406 31.794 31.5861C31.2484 32.1317 30.5085 32.4381 29.737 32.4381C29.3663 32.4535 28.9964 32.3916 28.6508 32.2564C28.3053 32.1212 27.9916 31.9156 27.7298 31.6527L16.6465 20.4244L5.44682 31.6236C5.20102 31.8775 4.90738 32.0802 4.58285 32.22C4.25831 32.3598 3.9093 32.4339 3.55596 32.4381C2.78445 32.4381 2.04453 32.1317 1.49899 31.5861C0.953441 31.0406 0.646958 30.3007 0.646958 29.5292C0.640175 29.1726 0.706346 28.8184 0.84141 28.4882C0.976474 28.1581 1.17758 27.859 1.43239 27.6094L12.7484 16.4393L1.43239 5.12373C0.952941 4.6547 0.671799 4.01955 0.646958 3.34931C0.646958 2.57783 0.953441 1.83794 1.49899 1.29242C2.04453 0.7469 2.78445 0.44043 3.55596 0.44043C4.25412 0.449156 4.9232 0.731318 5.41773 1.22583Z" fill="black"/>
</svg>
