<svg width="176" height="55" viewBox="0 0 176 55" fill="none" xmlns="http://www.w3.org/2000/svg">
<path d="M42.8171 13.1682L28.7069 5.03061C26.3242 3.65642 23.3634 3.65651 20.9806 5.03061L6.87047 13.1682C4.48303 14.5449 3 17.1124 3 19.8687V36.1312C3 38.8875 4.48303 41.455 6.87037 42.8317L20.9806 50.9693C23.3638 52.3438 26.3244 52.3433 28.7069 50.9693L42.817 42.8317C45.2045 41.455 46.6875 38.8875 46.6875 36.1312V19.8687C46.6875 17.1125 45.2045 14.545 42.8171 13.1682ZM42.9375 36.1312C42.9375 37.551 42.1736 38.8735 40.9438 39.5826L26.8336 47.7202C25.6061 48.4282 24.0813 48.4282 22.8538 47.7202L8.74359 39.5826C7.51388 38.8734 6.75 37.551 6.75 36.1312V19.8687C6.75 18.449 7.51388 17.1265 8.74369 16.4174L22.8538 8.27979C24.0814 7.57179 25.6067 7.57207 26.8337 8.27979L40.9439 16.4173C42.1736 17.1265 42.9375 18.4489 42.9375 19.8687V36.1312Z" fill="url(#paint0_linear_426_2487)"/>
<path d="M23.0619 26.5686L16.0981 20.6752C15.3077 20.0062 14.1244 20.1048 13.4555 20.8955C12.7866 21.6861 12.8852 22.8694 13.6757 23.5384L18.9481 28.0003L13.6757 32.4621C12.8852 33.1311 12.7867 34.3144 13.4555 35.105C14.126 35.8974 15.3095 35.9926 16.0981 35.3252L23.0619 29.4318C23.9478 28.682 23.9453 27.3163 23.0619 26.5686Z" fill="url(#paint1_linear_426_2487)"/>
<path d="M34.8006 32.0176H26.3635C25.328 32.0176 24.4885 32.8571 24.4885 33.8929C24.4885 34.9286 25.328 35.7681 26.3635 35.7681H34.8006C35.836 35.7681 36.6756 34.9286 36.6756 33.8929C36.6756 32.8571 35.8361 32.0176 34.8006 32.0176Z" fill="url(#paint2_linear_426_2487)"/>
<path d="M74.9588 14.7727H76.5568L79.3352 21.5568H79.4375L82.2159 14.7727H83.8139V23.5H82.5611V17.1847H82.4801L79.9062 23.4872H78.8665L76.2926 17.1804H76.2116V23.5H74.9588V14.7727ZM87.5309 23.6449C87.1161 23.6449 86.7411 23.5682 86.4059 23.4148C86.0707 23.2585 85.805 23.0327 85.609 22.7372C85.4158 22.4418 85.3192 22.0795 85.3192 21.6506C85.3192 21.2812 85.3903 20.9773 85.5323 20.7386C85.6744 20.5 85.8661 20.3111 86.1076 20.1719C86.3491 20.0327 86.619 19.9276 86.9173 19.8565C87.2156 19.7855 87.5195 19.7315 87.8292 19.6946C88.2212 19.6491 88.5394 19.6122 88.7837 19.5838C89.0281 19.5526 89.2056 19.5028 89.3164 19.4347C89.4272 19.3665 89.4826 19.2557 89.4826 19.1023V19.0724C89.4826 18.7003 89.3775 18.4119 89.1673 18.2074C88.9599 18.0028 88.6502 17.9006 88.2383 17.9006C87.8093 17.9006 87.4712 17.9957 87.2241 18.1861C86.9798 18.3736 86.8107 18.5824 86.717 18.8125L85.5195 18.5398C85.6616 18.142 85.869 17.821 86.1417 17.5767C86.4173 17.3295 86.734 17.1506 87.092 17.0398C87.4499 16.9261 87.8263 16.8693 88.2212 16.8693C88.4826 16.8693 88.7596 16.9006 89.0522 16.9631C89.3477 17.0227 89.6232 17.1335 89.8789 17.2955C90.1374 17.4574 90.3491 17.6889 90.5138 17.9901C90.6786 18.2884 90.761 18.6761 90.761 19.1534V23.5H89.5167V22.6051H89.4656C89.3832 22.7699 89.2596 22.9318 89.0948 23.0909C88.93 23.25 88.7184 23.3821 88.4599 23.4872C88.2013 23.5923 87.8917 23.6449 87.5309 23.6449ZM87.8079 22.6222C88.1602 22.6222 88.4613 22.5526 88.7113 22.4134C88.9641 22.2741 89.1559 22.0923 89.2866 21.8679C89.4201 21.6406 89.4869 21.3977 89.4869 21.1392V20.2955C89.4414 20.3409 89.3533 20.3835 89.2227 20.4233C89.0948 20.4602 88.9485 20.4929 88.7837 20.5213C88.619 20.5469 88.4585 20.571 88.3022 20.5938C88.146 20.6136 88.0153 20.6307 87.9102 20.6449C87.663 20.6761 87.4371 20.7287 87.2326 20.8026C87.0309 20.8764 86.869 20.983 86.7468 21.1222C86.6275 21.2585 86.5678 21.4403 86.5678 21.6676C86.5678 21.983 86.6843 22.2216 86.9173 22.3835C87.1502 22.5426 87.4471 22.6222 87.8079 22.6222ZM91.6463 18.054V16.9545H97.169V18.054H95.0341V23.5H93.7898V18.054H91.6463ZM101.033 23.6321C100.388 23.6321 99.8327 23.4943 99.3668 23.2188C98.9038 22.9403 98.5458 22.5497 98.293 22.0469C98.043 21.5412 97.918 20.9489 97.918 20.2699C97.918 19.5994 98.043 19.0085 98.293 18.4972C98.5458 17.9858 98.8981 17.5866 99.3498 17.2997C99.8043 17.0128 100.336 16.8693 100.944 16.8693C101.313 16.8693 101.671 16.9304 102.017 17.0526C102.364 17.1747 102.675 17.3665 102.951 17.6278C103.226 17.8892 103.444 18.2287 103.603 18.6463C103.762 19.0611 103.841 19.5653 103.841 20.1591V20.6108H98.6381V19.6562H102.593C102.593 19.321 102.525 19.0241 102.388 18.7656C102.252 18.5043 102.06 18.2983 101.813 18.1477C101.569 17.9972 101.282 17.9219 100.952 17.9219C100.594 17.9219 100.282 18.0099 100.015 18.1861C99.7504 18.3594 99.5458 18.5866 99.4009 18.8679C99.2589 19.1463 99.1879 19.4489 99.1879 19.7756V20.5213C99.1879 20.9588 99.2646 21.331 99.418 21.6378C99.5742 21.9446 99.7915 22.179 100.07 22.3409C100.348 22.5 100.674 22.5795 101.046 22.5795C101.287 22.5795 101.507 22.5455 101.706 22.4773C101.905 22.4062 102.077 22.3011 102.222 22.1619C102.367 22.0227 102.478 21.8509 102.554 21.6463L103.76 21.8636C103.664 22.2187 103.49 22.5298 103.24 22.7969C102.993 23.0611 102.682 23.267 102.307 23.4148C101.935 23.5597 101.51 23.6321 101.033 23.6321ZM108.928 21.9233L111.042 16.9545H112.141L109.401 23.5H108.455L105.771 16.9545H106.857L108.928 21.9233ZM106.504 16.9545V23.5H105.255V16.9545H106.504ZM111.387 23.5V16.9545H112.627V23.5H111.387ZM116.23 23.6449C115.815 23.6449 115.44 23.5682 115.105 23.4148C114.77 23.2585 114.504 23.0327 114.308 22.7372C114.115 22.4418 114.018 22.0795 114.018 21.6506C114.018 21.2812 114.089 20.9773 114.232 20.7386C114.374 20.5 114.565 20.3111 114.807 20.1719C115.048 20.0327 115.318 19.9276 115.616 19.8565C115.915 19.7855 116.219 19.7315 116.528 19.6946C116.92 19.6491 117.239 19.6122 117.483 19.5838C117.727 19.5526 117.905 19.5028 118.016 19.4347C118.126 19.3665 118.182 19.2557 118.182 19.1023V19.0724C118.182 18.7003 118.077 18.4119 117.866 18.2074C117.659 18.0028 117.349 17.9006 116.938 17.9006C116.509 17.9006 116.17 17.9957 115.923 18.1861C115.679 18.3736 115.51 18.5824 115.416 18.8125L114.219 18.5398C114.361 18.142 114.568 17.821 114.841 17.5767C115.116 17.3295 115.433 17.1506 115.791 17.0398C116.149 16.9261 116.526 16.8693 116.92 16.8693C117.182 16.8693 117.459 16.9006 117.751 16.9631C118.047 17.0227 118.322 17.1335 118.578 17.2955C118.837 17.4574 119.048 17.6889 119.213 17.9901C119.378 18.2884 119.46 18.6761 119.46 19.1534V23.5H118.216V22.6051H118.165C118.082 22.7699 117.959 22.9318 117.794 23.0909C117.629 23.25 117.418 23.3821 117.159 23.4872C116.901 23.5923 116.591 23.6449 116.23 23.6449ZM116.507 22.6222C116.859 22.6222 117.161 22.5526 117.411 22.4134C117.663 22.2741 117.855 22.0923 117.986 21.8679C118.119 21.6406 118.186 21.3977 118.186 21.1392V20.2955C118.141 20.3409 118.053 20.3835 117.922 20.4233C117.794 20.4602 117.648 20.4929 117.483 20.5213C117.318 20.5469 117.158 20.571 117.001 20.5938C116.845 20.6136 116.714 20.6307 116.609 20.6449C116.362 20.6761 116.136 20.7287 115.932 20.8026C115.73 20.8764 115.568 20.983 115.446 21.1222C115.327 21.2585 115.267 21.4403 115.267 21.6676C115.267 21.983 115.384 22.2216 115.616 22.3835C115.849 22.5426 116.146 22.6222 116.507 22.6222ZM120.346 18.054V16.9545H125.868V18.054H123.733V23.5H122.489V18.054H120.346ZM128.464 21.7145L131.349 16.9545H132.722V23.5H131.473V18.7358L128.601 23.5H127.216V16.9545H128.464V21.7145ZM139.689 16.9545V23.5H138.445V16.9545H139.689ZM139.148 19.9929V21.0923C138.952 21.1719 138.744 21.2429 138.526 21.3054C138.307 21.3651 138.077 21.4119 137.835 21.446C137.594 21.4801 137.342 21.4972 137.081 21.4972C136.271 21.4972 135.628 21.2997 135.151 20.9048C134.673 20.5071 134.435 19.8991 134.435 19.081V16.9418H135.675V19.081C135.675 19.3906 135.732 19.642 135.845 19.8352C135.959 20.0284 136.121 20.1705 136.331 20.2614C136.541 20.3523 136.791 20.3977 137.081 20.3977C137.464 20.3977 137.818 20.3622 138.142 20.2912C138.469 20.2173 138.804 20.1179 139.148 19.9929ZM144.205 23.6321C143.56 23.6321 143.005 23.4943 142.539 23.2188C142.076 22.9403 141.718 22.5497 141.465 22.0469C141.215 21.5412 141.09 20.9489 141.09 20.2699C141.09 19.5994 141.215 19.0085 141.465 18.4972C141.718 17.9858 142.07 17.5866 142.522 17.2997C142.976 17.0128 143.507 16.8693 144.115 16.8693C144.485 16.8693 144.843 16.9304 145.189 17.0526C145.536 17.1747 145.847 17.3665 146.123 17.6278C146.398 17.8892 146.615 18.2287 146.775 18.6463C146.934 19.0611 147.013 19.5653 147.013 20.1591V20.6108H141.81V19.6562H145.765C145.765 19.321 145.696 19.0241 145.56 18.7656C145.424 18.5043 145.232 18.2983 144.985 18.1477C144.74 17.9972 144.453 17.9219 144.124 17.9219C143.766 17.9219 143.453 18.0099 143.186 18.1861C142.922 18.3594 142.718 18.5866 142.573 18.8679C142.431 19.1463 142.36 19.4489 142.36 19.7756V20.5213C142.36 20.9588 142.436 21.331 142.59 21.6378C142.746 21.9446 142.963 22.179 143.242 22.3409C143.52 22.5 143.846 22.5795 144.218 22.5795C144.459 22.5795 144.679 22.5455 144.878 22.4773C145.077 22.4062 145.249 22.3011 145.394 22.1619C145.539 22.0227 145.65 21.8509 145.726 21.6463L146.932 21.8636C146.836 22.2187 146.662 22.5298 146.412 22.7969C146.165 23.0611 145.854 23.267 145.479 23.4148C145.107 23.5597 144.682 23.6321 144.205 23.6321ZM151.184 23.6321C150.55 23.6321 150.005 23.4886 149.548 23.2017C149.093 22.9119 148.744 22.5128 148.499 22.0043C148.255 21.4957 148.133 20.9134 148.133 20.2571C148.133 19.5923 148.258 19.0057 148.508 18.4972C148.758 17.9858 149.11 17.5866 149.565 17.2997C150.019 17.0128 150.555 16.8693 151.171 16.8693C151.668 16.8693 152.112 16.9616 152.501 17.1463C152.89 17.3281 153.204 17.5838 153.442 17.9134C153.684 18.2429 153.827 18.6278 153.873 19.0682H152.633C152.565 18.7614 152.408 18.4972 152.164 18.2756C151.923 18.054 151.599 17.9432 151.192 17.9432C150.837 17.9432 150.526 18.0369 150.259 18.2244C149.995 18.4091 149.789 18.6733 149.641 19.017C149.494 19.358 149.42 19.7614 149.42 20.2273C149.42 20.7045 149.492 21.1165 149.637 21.4631C149.782 21.8097 149.987 22.0781 150.251 22.2685C150.518 22.4588 150.832 22.554 151.192 22.554C151.434 22.554 151.653 22.5099 151.849 22.4219C152.048 22.331 152.214 22.2017 152.347 22.0341C152.484 21.8665 152.579 21.6648 152.633 21.429H153.873C153.827 21.8523 153.69 22.2301 153.46 22.5625C153.229 22.8949 152.921 23.1562 152.535 23.3466C152.151 23.5369 151.701 23.6321 151.184 23.6321ZM155.235 23.5V16.9545H156.51V19.6989H157.123L159.284 16.9545H160.86L158.325 20.1378L160.89 23.5H159.309L157.336 20.8835H156.51V23.5H155.235ZM163.129 21.7145L166.013 16.9545H167.386V23.5H166.137V18.7358L163.265 23.5H161.88V16.9545H163.129V21.7145ZM170.347 21.7145L173.232 16.9545H174.604V23.5H173.356V18.7358L170.484 23.5H169.099V16.9545H170.347V21.7145ZM172.687 14.7386H173.735C173.735 15.2187 173.565 15.6094 173.224 15.9105C172.886 16.2088 172.428 16.358 171.852 16.358C171.278 16.358 170.822 16.2088 170.484 15.9105C170.146 15.6094 169.977 15.2187 169.977 14.7386H171.021C171.021 14.9517 171.083 15.1406 171.208 15.3054C171.333 15.4673 171.548 15.5483 171.852 15.5483C172.15 15.5483 172.363 15.4673 172.491 15.3054C172.621 15.1435 172.687 14.9545 172.687 14.7386ZM74.4773 32.098V30.7727H81.4403V32.098H78.7429V39.5H77.1747V32.098H74.4773ZM82.0348 41.9545V32.9545H83.5518V34.0369H83.6413C83.7209 33.8778 83.8331 33.7088 83.978 33.5298C84.1229 33.348 84.3189 33.1932 84.5661 33.0653C84.8132 32.9347 85.1286 32.8693 85.5121 32.8693C86.0178 32.8693 86.4737 32.9986 86.88 33.2571C87.2891 33.5128 87.6129 33.892 87.8516 34.3949C88.093 34.8949 88.2138 35.5085 88.2138 36.2358C88.2138 36.9545 88.0959 37.5653 87.8601 38.0682C87.6243 38.571 87.3033 38.9545 86.897 39.2188C86.4908 39.483 86.0305 39.6151 85.5163 39.6151C85.1413 39.6151 84.8303 39.5526 84.5831 39.4276C84.3359 39.3026 84.1371 39.152 83.9865 38.9759C83.8388 38.7969 83.7237 38.6278 83.6413 38.4688H83.5774V41.9545H82.0348ZM83.5476 36.2273C83.5476 36.6506 83.6072 37.0213 83.7266 37.3395C83.8487 37.6577 84.0234 37.9062 84.2507 38.0852C84.4808 38.2614 84.7592 38.3494 85.0859 38.3494C85.4268 38.3494 85.7124 38.2585 85.9425 38.0767C86.1726 37.892 86.3459 37.6406 86.4624 37.3224C86.5817 37.0014 86.6413 36.6364 86.6413 36.2273C86.6413 35.821 86.5831 35.4602 86.4666 35.1449C86.3501 34.8295 86.1768 34.5824 85.9467 34.4034C85.7166 34.2244 85.4297 34.1349 85.0859 34.1349C84.7564 34.1349 84.4766 34.2216 84.2464 34.3949C84.0163 34.5682 83.8416 34.8111 83.7223 35.1236C83.6058 35.4361 83.5476 35.804 83.5476 36.2273ZM92.4325 39.6278C91.7763 39.6278 91.2095 39.4915 90.7322 39.2188C90.2578 38.9432 89.8928 38.554 89.6371 38.0511C89.3814 37.5455 89.2536 36.9503 89.2536 36.2656C89.2536 35.5923 89.3814 35.0014 89.6371 34.4929C89.8956 33.9815 90.2564 33.5838 90.7195 33.2997C91.1825 33.0128 91.7266 32.8693 92.3516 32.8693C92.755 32.8693 93.1357 32.9347 93.4936 33.0653C93.8544 33.1932 94.1726 33.392 94.4482 33.6619C94.7266 33.9318 94.9453 34.2756 95.1044 34.6932C95.2635 35.108 95.343 35.6023 95.343 36.1761V36.6491H89.978V35.6094H93.8643C93.8615 35.3139 93.7976 35.0511 93.6726 34.821C93.5476 34.5881 93.3729 34.4048 93.1484 34.2713C92.9268 34.1378 92.6683 34.071 92.3729 34.071C92.0575 34.071 91.7805 34.1477 91.5419 34.3011C91.3033 34.4517 91.1172 34.6506 90.9837 34.8977C90.853 35.142 90.7862 35.4105 90.7834 35.7031V36.6108C90.7834 36.9915 90.853 37.3182 90.9922 37.5909C91.1314 37.8608 91.326 38.0682 91.576 38.2131C91.826 38.3551 92.1186 38.4261 92.4538 38.4261C92.6783 38.4261 92.8814 38.3949 93.0632 38.3324C93.245 38.267 93.4027 38.1719 93.5362 38.0469C93.6697 37.9219 93.7706 37.767 93.8388 37.5824L95.2791 37.7443C95.1882 38.125 95.0149 38.4574 94.7592 38.7415C94.5064 39.0227 94.1825 39.2415 93.7876 39.3977C93.3928 39.5511 92.9411 39.6278 92.4325 39.6278ZM101.144 35.5881V36.8537H97.658V35.5881H101.144ZM98.1353 32.9545V39.5H96.6481V32.9545H98.1353ZM102.154 32.9545V39.5H100.671V32.9545H102.154ZM105.598 39.6321C105.183 39.6321 104.81 39.5582 104.477 39.4105C104.148 39.2599 103.886 39.0384 103.693 38.7457C103.503 38.4531 103.408 38.0923 103.408 37.6634C103.408 37.294 103.476 36.9886 103.612 36.7472C103.749 36.5057 103.935 36.3125 104.17 36.1676C104.406 36.0227 104.672 35.9134 104.967 35.8395C105.266 35.7628 105.574 35.7074 105.892 35.6733C106.276 35.6335 106.587 35.598 106.825 35.5668C107.064 35.5327 107.237 35.4815 107.345 35.4134C107.456 35.3423 107.511 35.233 107.511 35.0852V35.0597C107.511 34.7386 107.416 34.4901 107.226 34.3139C107.036 34.1378 106.761 34.0497 106.403 34.0497C106.026 34.0497 105.726 34.1321 105.504 34.2969C105.286 34.4616 105.138 34.6562 105.061 34.8807L103.621 34.6761C103.734 34.2784 103.922 33.946 104.183 33.679C104.445 33.4091 104.764 33.2074 105.142 33.0739C105.52 32.9375 105.938 32.8693 106.395 32.8693C106.71 32.8693 107.024 32.9062 107.337 32.9801C107.649 33.054 107.935 33.1761 108.193 33.3466C108.452 33.5142 108.659 33.7429 108.815 34.0327C108.974 34.3224 109.054 34.6847 109.054 35.1193V39.5H107.571V38.6009H107.52C107.426 38.7827 107.294 38.9531 107.124 39.1122C106.956 39.2685 106.744 39.3949 106.489 39.4915C106.236 39.5852 105.939 39.6321 105.598 39.6321ZM105.999 38.4986C106.308 38.4986 106.577 38.4375 106.804 38.3153C107.031 38.1903 107.206 38.0256 107.328 37.821C107.453 37.6165 107.516 37.3935 107.516 37.152V36.3807C107.467 36.4205 107.385 36.4574 107.268 36.4915C107.155 36.5256 107.027 36.5554 106.885 36.581C106.743 36.6065 106.602 36.6293 106.463 36.6491C106.324 36.669 106.203 36.6861 106.101 36.7003C105.871 36.7315 105.665 36.7827 105.483 36.8537C105.301 36.9247 105.158 37.0241 105.053 37.152C104.947 37.277 104.895 37.4389 104.895 37.6378C104.895 37.9219 104.999 38.1364 105.206 38.2812C105.413 38.4261 105.678 38.4986 105.999 38.4986ZM110.179 39.5L112.595 36.1207L110.2 32.9545H111.982L113.844 35.5923H114.21V32.9545H115.753V35.5923H116.111L117.973 32.9545H119.754L117.372 36.1207L119.776 39.5H117.956L116.094 36.858H115.753V39.5H114.21V36.858H113.869L111.999 39.5H110.179ZM123.581 39.6278C122.925 39.6278 122.358 39.4915 121.881 39.2188C121.406 38.9432 121.041 38.554 120.786 38.0511C120.53 37.5455 120.402 36.9503 120.402 36.2656C120.402 35.5923 120.53 35.0014 120.786 34.4929C121.044 33.9815 121.405 33.5838 121.868 33.2997C122.331 33.0128 122.875 32.8693 123.5 32.8693C123.903 32.8693 124.284 32.9347 124.642 33.0653C125.003 33.1932 125.321 33.392 125.597 33.6619C125.875 33.9318 126.094 34.2756 126.253 34.6932C126.412 35.108 126.491 35.6023 126.491 36.1761V36.6491H121.126V35.6094H125.013C125.01 35.3139 124.946 35.0511 124.821 34.821C124.696 34.5881 124.521 34.4048 124.297 34.2713C124.075 34.1378 123.817 34.071 123.521 34.071C123.206 34.071 122.929 34.1477 122.69 34.3011C122.452 34.4517 122.266 34.6506 122.132 34.8977C122.001 35.142 121.935 35.4105 121.932 35.7031V36.6108C121.932 36.9915 122.001 37.3182 122.141 37.5909C122.28 37.8608 122.474 38.0682 122.724 38.2131C122.974 38.3551 123.267 38.4261 123.602 38.4261C123.827 38.4261 124.03 38.3949 124.212 38.3324C124.393 38.267 124.551 38.1719 124.685 38.0469C124.818 37.9219 124.919 37.767 124.987 37.5824L126.428 37.7443C126.337 38.125 126.163 38.4574 125.908 38.7415C125.655 39.0227 125.331 39.2415 124.936 39.3977C124.541 39.5511 124.089 39.6278 123.581 39.6278ZM127.797 41.9545V32.9545H129.314V34.0369H129.403C129.483 33.8778 129.595 33.7088 129.74 33.5298C129.885 33.348 130.081 33.1932 130.328 33.0653C130.575 32.9347 130.89 32.8693 131.274 32.8693C131.779 32.8693 132.235 32.9986 132.642 33.2571C133.051 33.5128 133.375 33.892 133.613 34.3949C133.855 34.8949 133.975 35.5085 133.975 36.2358C133.975 36.9545 133.858 37.5653 133.622 38.0682C133.386 38.571 133.065 38.9545 132.659 39.2188C132.252 39.483 131.792 39.6151 131.278 39.6151C130.903 39.6151 130.592 39.5526 130.345 39.4276C130.098 39.3026 129.899 39.152 129.748 38.9759C129.6 38.7969 129.485 38.6278 129.403 38.4688H129.339V41.9545H127.797ZM129.309 36.2273C129.309 36.6506 129.369 37.0213 129.488 37.3395C129.61 37.6577 129.785 37.9062 130.012 38.0852C130.243 38.2614 130.521 38.3494 130.848 38.3494C131.189 38.3494 131.474 38.2585 131.704 38.0767C131.934 37.892 132.108 37.6406 132.224 37.3224C132.343 37.0014 132.403 36.6364 132.403 36.2273C132.403 35.821 132.345 35.4602 132.228 35.1449C132.112 34.8295 131.939 34.5824 131.708 34.4034C131.478 34.2244 131.191 34.1349 130.848 34.1349C130.518 34.1349 130.238 34.2216 130.008 34.3949C129.778 34.5682 129.603 34.8111 129.484 35.1236C129.368 35.4361 129.309 35.804 129.309 36.2273Z" fill="black"/>
<defs>
<linearGradient id="paint0_linear_426_2487" x1="24.8438" y1="4" x2="24.8438" y2="52" gradientUnits="userSpaceOnUse">
<stop stop-color="#3CC7FF"/>
<stop offset="1" stop-color="#4BDAFF"/>
</linearGradient>
<linearGradient id="paint1_linear_426_2487" x1="18.3686" y1="20.2314" x2="18.3686" y2="35.7689" gradientUnits="userSpaceOnUse">
<stop stop-color="#3CC7FF"/>
<stop offset="1" stop-color="#4BDAFF"/>
</linearGradient>
<linearGradient id="paint2_linear_426_2487" x1="30.582" y1="32.0176" x2="30.582" y2="35.7681" gradientUnits="userSpaceOnUse">
<stop stop-color="#3CC7FF"/>
<stop offset="1" stop-color="#4BDAFF"/>
</linearGradient>
</defs>
</svg>
