<svg width="22" height="23" viewBox="0 0 22 23" fill="none" xmlns="http://www.w3.org/2000/svg">
<path d="M6.85253 11.6247C6.85253 11.7297 0.393151 18.1253 0.162526 18.3784C-0.0680994 18.6316 -0.0493494 18.8641 0.226276 19.1809C0.501901 19.4978 3.7044 22.6009 3.81503 22.7059C3.94253 22.8259 4.32128 22.6422 4.5969 22.3891C4.87065 22.1359 11.0132 16.0572 11.1819 16.0572C11.3507 16.0572 17.0713 21.7984 17.4088 22.0516C17.7463 22.3047 18.1681 22.2841 18.4213 22.1153C18.6744 21.9466 21.3763 19.2653 21.5657 19.0553C21.755 18.8434 21.5863 18.5491 21.2694 18.1891C20.9525 17.8309 15.1269 11.7522 15.1269 11.7522L22.0082 4.70218C22.0082 4.70218 18.5882 1.43031 18.3782 1.24093C18.1681 1.05156 17.7875 0.860308 17.3432 1.28406C16.8988 1.70781 11.0319 7.63656 11.0319 7.63656C11.0319 7.63656 4.7844 1.11343 4.5744 0.924058C4.3644 0.734683 4.08878 0.819058 3.85628 1.00843C3.62378 1.19781 0.310651 4.42656 0.183151 4.57468C0.0556506 4.72281 0.310651 4.95531 0.668775 5.33406C1.0269 5.71281 6.85253 11.6247 6.85253 11.6247Z" fill="#616266"/>
</svg>
